<svg width="14" height="14" viewBox="0 0 14 14" fill="none" xmlns="http://www.w3.org/2000/svg">
<path fill-rule="evenodd" clip-rule="evenodd" d="M7.70713 0.45955C7.3166 0.0690254 6.68344 0.0690254 6.29291 0.45955C5.90239 0.850074 5.90239 1.48324 6.29291 1.87376L10.4191 5.99999H1.16669C0.614402 5.99999 0.166687 6.44771 0.166687 6.99999C0.166687 7.55227 0.614402 7.99999 1.16669 7.99999H10.4191L6.29291 12.1262C5.90239 12.5167 5.90239 13.1499 6.29291 13.5404C6.68344 13.931 7.3166 13.931 7.70713 13.5404L13.5405 7.7071C13.7334 7.51418 13.831 7.26206 13.8333 7.00922M13.7575 6.61721C13.7087 6.49926 13.6363 6.38876 13.5405 6.29288L7.70713 0.45955M13.7575 6.61721C13.8053 6.73243 13.8321 6.85853 13.8333 6.99076Z" fill="white"/>
</svg>
